Coordinates
version=1
nRows=88
nColumns=6
inDegrees=yes

Units are S.I. units (second, meters, Newtons, ...)
If the header above contains a line with 'inDegrees', this indicates whether rotational values are in degrees (yes) or radians (no).

endheader
time	bJoint_3	bJoint_4	baseangle	kneeangle	bladeangle
      0.00000000	     -0.00000000	     -0.00000000	      7.03809811	    -54.06254448	     47.02645357
      0.02000000	      0.00000000	      0.00000000	      4.40720340	    -51.68874829	     47.28240093
      0.04000000	      0.00000000	      0.00000000	      1.91941847	    -49.33601909	     47.41726724
      0.06000000	      0.00000000	      0.00000000	     -0.44596731	    -47.00058391	     47.44691734
      0.08000000	      0.00000000	      0.00000000	     -2.71374537	    -44.67120552	     47.38527629
      0.10000000	      0.00000000	      0.00000000	     -4.89642918	    -42.34607716	     47.24247364
      0.12000000	     -0.00000000	     -0.00000000	     -7.00692652	    -40.02110725	     47.02763137
      0.14000000	      0.00000000	      0.00000000	     -9.05614426	    -37.69263312	     46.74867873
      0.16000000	      0.00000000	      0.00000000	    -11.05326650	    -35.35732149	     46.41004238
      0.18000000	     -0.00000000	     -0.00000000	    -13.00399467	    -33.01493390	     46.01855173
      0.20000000	      0.00000000	      0.00000000	    -14.92015735	    -30.65672946	     45.57686816
      0.22000000	      0.00000000	      0.00000000	    -16.80551154	    -28.28268960	     45.08817318
      0.24000000	     -0.00000000	     -0.00000000	    -18.66567977	    -25.88994443	     44.55558693
      0.26000000	      0.00000000	     -0.00000000	    -20.50572114	    -23.47560678	     43.97994967
      0.28000000	     -0.00000000	     -0.00000000	    -22.32823615	    -21.03972784	     43.36700438
      0.30000000	     -0.00000000	     -0.00000000	    -24.14199954	    -18.57327376	     42.71393698
      0.32000000	     -0.00000000	     -0.00000000	    -25.94896069	    -16.07601022	     42.02253647
      0.34000000	      0.00000000	      0.00000000	    -27.75335893	    -13.54448240	     41.29762222
      0.36000000	     -0.00000000	     -0.00000000	    -29.55896760	    -10.97500674	     40.53371253
      0.38000000	     -0.00000000	     -0.00000000	    -31.36759995	     -8.36683457	     39.73423728
      0.40000000	      0.00000000	      0.00000000	    -33.18772587	     -5.70915993	     38.89654253
      0.42000000	     -0.00000000	     -0.00000000	    -35.02138966	     -3.00021542	     38.02159814
      0.44000000	     -0.00000000	     -0.00000000	    -36.87293021	     -0.23455364	     37.10746395
      0.46000000	     -0.00000000	     -0.00000000	    -38.74709654	      2.59405278	     36.15301669
      0.48000000	      0.00000000	     -0.00000000	    -40.64904990	      5.49272408	     35.15629706
      0.50000000	      0.00000000	     -0.00000000	    -42.58213047	      8.46599951	     34.11610486
      0.52000000	      0.00000000	     -0.00000000	    -44.55757907	     11.53083273	     33.02673092
      0.54000000	     -0.00000000	     -0.00000000	    -46.58054295	     14.69508769	     31.88544152
      0.56000000	      0.00000000	     -0.00000000	    -46.03362918	     14.99668793	     31.03684053
      0.58000000	      0.00000000	     -0.00000000	    -45.50921481	     15.32627418	     30.18226344
      0.60000000	      0.00000000	     -0.00000000	    -45.00459493	     15.68372786	     29.32083873
      0.62000000	     -0.00000000	      0.00000000	    -44.25975025	     15.66879871	     28.58759470
      0.64000000	     -0.00000000	      0.00000000	    -43.27112697	     15.28146938	     27.98965786
      0.66000000	     -0.00000000	      0.00000000	    -42.29568556	     14.92226697	     27.37341863
      0.68000000	     -0.00000000	     -0.00000000	    -42.03280265	     14.52682984	     27.50597301
      0.70000000	      0.00000000	     -0.00000000	    -41.07460352	     13.08985823	     27.98474497
      0.72000000	      0.00000000	     -0.00000000	    -40.12867790	     11.67818244	     28.45049507
      0.74000000	      0.00000000	     -0.00000000	    -39.18905981	     10.28288194	     28.90623360
      0.76000000	      0.00000000	     -0.00000000	    -38.25761017	      8.90674401	     29.35091349
      0.78000000	      0.00000000	     -0.00000000	    -37.33613965	      7.55241824	     29.78376260
      0.80000000	      0.00000000	     -0.00000000	    -36.41896152	      6.21156084	     30.20743596
      0.82000000	      0.00000000	     -0.00000000	    -35.50798701	      4.88701949	     30.62099701
      0.84000000	      0.00000000	     -0.00000000	    -34.60509176	      3.58152504	     31.02359011
      0.86000000	      0.00000000	     -0.00000000	    -33.70478731	      2.28718483	     31.41761886
      0.88000000	      0.00000000	     -0.00000000	    -32.80901682	      1.00687551	     31.80215069
      0.90000000	      0.00000000	     -0.00000000	    -31.91969585	     -0.25663427	     32.17633187
      0.92000000	     -0.00000000	     -0.00000000	    -31.03147406	     -1.51087471	     32.54235170
      0.94000000	     -0.00000000	     -0.00000000	    -30.14631351	     -2.75296232	     32.89927752
      0.96000000	     -0.00000000	     -0.00000000	    -29.26615530	     -3.98011569	     33.24627187
      0.98000000	      0.00000000	      0.00000000	    -28.38581652	     -5.19956852	     33.58766777
      1.00000000	      0.00000000	      0.00000000	    -27.50704313	     -6.40843668	     33.91548209
      1.02000000	      0.00000000	     -0.00000000	    -26.63202207	     -7.60395220	     34.23597410
      1.04000000	      0.00000000	     -0.00000000	    -25.75546924	     -8.79309097	     34.54855993
      1.06000000	      0.00000000	     -0.00000000	    -24.87935992	     -9.97300091	     34.85236053
      1.08000000	      0.00000000	     -0.00000000	    -24.00566589	    -11.14091114	     35.14657674
      1.10000000	      0.00000000	     -0.00000000	    -23.12919909	    -12.30359559	     35.43281177
      1.12000000	      0.00000000	     -0.00000000	    -22.25193446	    -13.45822201	     35.71016835
      1.14000000	      0.00000000	     -0.00000000	    -21.37585206	    -14.60203801	     35.97789833
      1.16000000	      0.00000000	     -0.00000000	    -20.49574820	    -15.74163995	     36.23739325
      1.18000000	     -0.00000000	     -0.00000000	    -19.61359361	    -16.87422692	     36.48782227
      1.20000000	     -0.00000000	     -0.00000000	    -18.73137536	    -17.99706427	     36.72844074
      1.22000000	      0.00000000	     -0.00000000	    -17.84384021	    -19.11660077	     36.96044225
      1.24000000	      0.00000000	     -0.00000000	    -16.95295318	    -20.23006629	     37.18304880
      1.26000000	      0.00000000	     -0.00000000	    -16.06070703	    -21.33474328	     37.39547615
      1.28000000	      0.00000000	     -0.00000000	    -15.16176370	    -22.43696010	     37.59874881
      1.30000000	      0.00000000	     -0.00000000	    -14.25807974	    -23.53397481	     37.79207936
      1.32000000	      0.00000000	     -0.00000000	    -13.35164861	    -24.62309702	     37.97477061
      1.34000000	      0.00000000	     -0.00000000	    -12.43701097	    -25.71055229	     38.14759146
      1.36000000	      0.00000000	     -0.00000000	    -11.51613659	    -26.79363165	     38.31046925
      1.38000000	      0.00000000	     -0.00000000	    -10.59096693	    -27.86966231	     38.46135781
      1.40000000	     -0.00000000	      0.00000000	     -9.65590306	    -28.94479385	     38.60147288
      1.42000000	     -0.00000000	      0.00000000	     -8.71286457	    -30.01634736	     38.72998768
      1.44000000	      0.00000000	     -0.00000000	     -7.76379704	    -31.08168704	     38.84552741
      1.46000000	     -0.00000000	      0.00000000	     -6.80296767	    -32.14688759	     38.95044757
      1.48000000	     -0.00000000	      0.00000000	     -5.83216221	    -33.20931537	     39.04186444
      1.50000000	      0.00000000	     -0.00000000	     -4.85338553	    -34.26634998	     39.11989609
      1.52000000	     -0.00000000	      0.00000000	     -3.86054513	    -35.32403728	     39.18480524
      1.54000000	     -0.00000000	      0.00000000	     -2.85545108	    -36.37977533	     39.23527394
      1.56000000	     -0.00000000	      0.00000000	     -1.84005395	    -37.43097538	     39.27091887
      1.58000000	      0.00000000	     -0.00000000	     -0.80789221	    -38.48367852	     39.29151525
      1.60000000	      0.00000000	     -0.00000000	      0.23926234	    -39.53530824	     39.29597434
      1.62000000	      0.00000000	     -0.00000000	      1.29954156	    -40.58331728	     39.28358082
      1.64000000	      0.00000000	     -0.00000000	      2.37985223	    -41.63375792	     39.25360278
      1.66000000	      0.00000000	     -0.00000000	      3.47852389	    -42.68410708	     39.20521467
      1.68000000	      0.00000000	     -0.00000000	      4.59377816	    -43.73185884	     39.13770347
      1.70000000	      0.00000000	     -0.00000000	      5.73308414	    -44.78311033	     39.05001565
      1.72000000	      0.00000000	     -0.00000000	      6.89498684	    -45.83540473	     38.94041029
      1.74000000	      0.00000000	     -0.00000000	      8.07784280	    -46.88629062	     38.80844375
